<svg xmlns="http://www.w3.org/2000/svg" width="10" height="12" viewBox="0 0 10 12">
  <g id="Iconly_Bold_Arrow---Left-2" data-name="Iconly/Bold/Arrow---Left-2" opacity="0.5">
    <g id="Arrow---Left-2" transform="translate(0)">
      <path id="Path_3" data-name="Path 3" d="M.369,4.869c.057-.058.27-.306.469-.51A21.69,21.69,0,0,1,6.633.335,4.617,4.617,0,0,1,7.812,0a1.933,1.933,0,0,1,.9.218,1.874,1.874,0,0,1,.795.9,9.841,9.841,0,0,1,.256,1.064A23.978,23.978,0,0,1,10,5.992a27.724,27.724,0,0,1-.213,3.689,8.494,8.494,0,0,1-.341,1.327A1.785,1.785,0,0,1,7.868,12H7.812a4.878,4.878,0,0,1-1.321-.409A21.69,21.69,0,0,1,.823,7.625a5.66,5.66,0,0,1-.482-.554A1.783,1.783,0,0,1,0,6.007,1.875,1.875,0,0,1,.369,4.869" transform="translate(0)" fill="#fff"/>
    </g>
  </g>
</svg>
