<svg xmlns="http://www.w3.org/2000/svg" width="6.793" height="12.388" viewBox="0 0 6.793 12.388">
  <g id="Iconly_Light-Outline_Arrow---Left-2" data-name="Iconly/Light-Outline/Arrow---Left-2" transform="translate(-7.75 -4.25)">
    <g id="Arrow---Left-2" transform="translate(14.543 4.25) rotate(90)">
      <path id="Stroke-1" d="M.176.176A.6.6,0,0,1,.956.118l.067.058,5.171,5.17L11.365.176a.6.6,0,0,1,.78-.058l.067.058a.6.6,0,0,1,.058.78l-.058.067L6.618,6.618a.6.6,0,0,1-.78.058L5.77,6.618.176,1.023A.6.6,0,0,1,.176.176Z" transform="translate(0)" fill="#b8b8b8"/>
    </g>
  </g>
</svg>
