<svg xmlns="http://www.w3.org/2000/svg" width="19.5" height="20" viewBox="0 0 19.5 20">
  <g id="Iconly_Light-Outline_Bag-2" data-name="Iconly/Light-Outline/Bag-2" transform="translate(-2 -2)">
    <g id="Bag-2" transform="translate(2 2)">
      <path id="Combined-Shape" d="M9.754,0a4.527,4.527,0,0,1,4.519,4.474h.219A5.012,5.012,0,0,1,19.5,9.48V15a5.011,5.011,0,0,1-5.008,5H5.008A5.012,5.012,0,0,1,0,15V9.48A5.012,5.012,0,0,1,5.008,4.475h.2l.006-.194A4.488,4.488,0,0,1,6.55,1.311,4.692,4.692,0,0,1,9.754,0Zm4.738,5.975h-.219V7.556a.75.75,0,1,1-1.5,0V5.974H6.711V7.556a.75.75,0,1,1-1.5,0V5.974h-.2A3.51,3.51,0,0,0,1.5,9.48V15a3.51,3.51,0,0,0,3.508,3.5h9.484A3.51,3.51,0,0,0,18,15V9.48A3.51,3.51,0,0,0,14.492,5.975ZM9.751,1.5a3.146,3.146,0,0,0-2.145.876,3,3,0,0,0-.895,2.1h6.06l0-.127A3.027,3.027,0,0,0,9.751,1.5Z"/>
    </g>
  </g>
</svg>
