<svg xmlns="http://www.w3.org/2000/svg" width="51" height="50" viewBox="0 0 51 50">
  <path id="Polygon_1" data-name="Polygon 1" d="M22.081,4.527a4.284,4.284,0,0,1,6.837,0l.095.125a4.284,4.284,0,0,0,4.9,1.436l.159-.059a4.284,4.284,0,0,1,5.759,3.711l0,.064a4.284,4.284,0,0,0,3.372,3.881l.086.018a4.284,4.284,0,0,1,2.85,6.258h0a4.284,4.284,0,0,0,.737,5.115l0,0a4.284,4.284,0,0,1-.977,6.814l-.035.019a4.284,4.284,0,0,0-2.147,4.69l0,.021a4.284,4.284,0,0,1-4.488,5.194l-.136-.01A4.284,4.284,0,0,0,34.8,44.574l-.04.108A4.284,4.284,0,0,1,28.2,46.614l-.143-.106a4.284,4.284,0,0,0-5.106,0l-.143.106a4.284,4.284,0,0,1-6.563-1.932l-.04-.108a4.284,4.284,0,0,0-4.314-2.765l-.136.01a4.284,4.284,0,0,1-4.488-5.194l0-.021a4.284,4.284,0,0,0-2.147-4.69L5.086,31.9a4.284,4.284,0,0,1-.977-6.814l0,0a4.284,4.284,0,0,0,.737-5.115h0A4.284,4.284,0,0,1,7.7,13.705l.086-.018a4.284,4.284,0,0,0,3.372-3.881l0-.064A4.284,4.284,0,0,1,16.922,6.03l.159.059a4.284,4.284,0,0,0,4.9-1.436Z" fill="#ff5700"/>
</svg>
