<svg xmlns="http://www.w3.org/2000/svg" width="103" height="103" viewBox="0 0 103 103">
  <path id="Subtraction_1" data-name="Subtraction 1" d="M51.5,103A51.514,51.514,0,0,1,31.454,4.047,51.513,51.513,0,0,1,71.546,98.953,51.178,51.178,0,0,1,51.5,103ZM50.415,27.31c-1.214,0-2.716.245-3.29.932a2.575,2.575,0,0,0-.372,1.28,16.546,16.546,0,0,1-.359,1.88c-.066.262-.134.546-.206.847l-.01.041a26.089,26.089,0,0,1-1.2,4.065c-.886,1.96-4.68,5.317-6.719,7.121-.455.4-.888.782-1.193,1.074a24.545,24.545,0,0,0-3.006,3.856l-.192.277a17.141,17.141,0,0,1-1.424,1.9,4.252,4.252,0,0,1-2.63,1.286.944.944,0,0,0-.943.943V71.625a.98.98,0,0,0,.978.979,18.52,18.52,0,0,1,7.771,1.369l.059.022a20.436,20.436,0,0,0,5.471,1.426,111.256,111.256,0,0,0,13.278.955,58.589,58.589,0,0,0,6.674-.459c3.658-.425,7.571-1.275,8.868-4.364a3.328,3.328,0,0,0-.059-2.794.919.919,0,0,1-.094-.307,1,1,0,0,1,.342-.967,4.789,4.789,0,0,0,1.969-3.7,5.183,5.183,0,0,0-1.286-3.432c-.064-.129-.12-.25-.173-.368l-.006-.013-.009-.021-.024-.129a1.533,1.533,0,0,1,.236-1.18,5.309,5.309,0,0,0,.684-3.03,3.6,3.6,0,0,0-1.144-2.736,2.256,2.256,0,0,1-.483-2.158,4.571,4.571,0,0,0-.967-4.458c-.969-1.088-1.894-1.438-3.808-1.438-.448,0-.976.019-1.663.058-2.013.124-6.112.746-9.458,1.274l-.111.018-.028,0c-1.128.178-2.1.332-2.409.355-.367.037-.655.056-.882.056-.763,0-.947-.2-1.052-.634a3.616,3.616,0,0,1,.552-1.48l.026-.053.008-.017a25.245,25.245,0,0,0,1.7-4.205c1.185-3.895,1.057-8.169-.318-10.636A3.819,3.819,0,0,0,50.415,27.31Z" fill="#1fd586"/>
</svg>
